
<svg viewBox="0 0 83 36" version="1.1" xmlns="http://www.w3.org/2000/svg" xmlns:xlink="http://www.w3.org/1999/xlink">
    <!-- Generator: Sketch 43.2 (39069) - http://www.bohemiancoding.com/sketch -->
    <desc>Created with Sketch.</desc>
    <defs>
        <linearGradient x1="49.9878911%" y1="0.0920238892%" x2="49.9878911%" y2="100.062542%" id="linearGradient-1">
            <stop stop-color="#FFFFFF" offset="0%"></stop>
            <stop stop-color="#FFFFFF" offset="100%"></stop>
        </linearGradient>
        <path d="M4.97949007,11.5003937 C0.924982676,13.8035433 21.089605,12.3141732 24.5120409,15.2161417 C27.286989,17.5807087 24.5120409,19.6276659 24.5120409,25.8920898 C24.5120409,28.1743164 25.6990011,26.690515 25.8994141,25.8920898 C27.2406389,20.2877591 25.8994141,20.5244141 29.2140362,17.5346457 C30.0252162,16.8029664 31.5573256,18.0413386 32.3743937,18.4866142 C34.9489288,19.9145669 36.0126589,19.9452756 38.2326173,19.9452756 C40.5142412,19.9452756 43.7979297,17.4885827 45.7095606,17.826378 C48.4074267,18.3023622 47.4182746,23.5275229 48.4511719,25.8920898 C48.7132503,26.5062631 49.4356889,27.0984421 49.3740234,26.4228516 C49.0194467,23.0602531 47.9911845,18.5480315 50.4423886,15.9224409 C51.0898765,15.2314961 52.2615212,15.3082677 53.2173366,15.0625984 C57.4876733,13.9570866 73.8136176,13.834252 69.9595231,12.0377953 C66.9224966,10.6251969 58.6130689,12.4216535 51.3827877,5.60433071 C49.1628292,3.51614173 43.6129332,0.0614173228 37.4772148,0.0614173228 C31.4802437,0.0614173228 25.2828598,3.1476378 22.2612497,5.86535433 C13.9364057,13.3275591 8.41734235,9.5503937 4.97949007,11.5003937 Z" id="path-2"></path>
        <filter x="-11.3%" y="-20.3%" width="122.7%" height="155.5%" filterUnits="objectBoundingBox" id="filter-3">
            <feMorphology radius="0.5" operator="dilate" in="SourceAlpha" result="shadowSpreadOuter1"></feMorphology>
            <feOffset dx="0" dy="2" in="shadowSpreadOuter1" result="shadowOffsetOuter1"></feOffset>
            <feGaussianBlur stdDeviation="2" in="shadowOffsetOuter1" result="shadowBlurOuter1"></feGaussianBlur>
            <feComposite in="shadowBlurOuter1" in2="SourceAlpha" operator="out" result="shadowBlurOuter1"></feComposite>
            <feColorMatrix values="0 0 0 0 0   0 0 0 0 0   0 0 0 0 0  0 0 0 0.2 0" type="matrix" in="shadowBlurOuter1"></feColorMatrix>
        </filter>
        <filter x="-46.7%" y="-100.0%" width="193.3%" height="380.0%" filterUnits="objectBoundingBox" id="filter-4">
            <feOffset dx="0" dy="2" in="SourceAlpha" result="shadowOffsetOuter1"></feOffset>
            <feGaussianBlur stdDeviation="2" in="shadowOffsetOuter1" result="shadowBlurOuter1"></feGaussianBlur>
            <feColorMatrix values="0 0 0 0 0   0 0 0 0 0   0 0 0 0 0  0 0 0 0.2 0" type="matrix" in="shadowBlurOuter1" result="shadowMatrixOuter1"></feColorMatrix>
            <feMerge>
                <feMergeNode in="shadowMatrixOuter1"></feMergeNode>
                <feMergeNode in="SourceGraphic"></feMergeNode>
            </feMerge>
        </filter>
        <filter x="-46.7%" y="-100.0%" width="193.3%" height="380.0%" filterUnits="objectBoundingBox" id="filter-5">
            <feOffset dx="0" dy="2" in="SourceAlpha" result="shadowOffsetOuter1"></feOffset>
            <feGaussianBlur stdDeviation="2" in="shadowOffsetOuter1" result="shadowBlurOuter1"></feGaussianBlur>
            <feColorMatrix values="0 0 0 0 0   0 0 0 0 0   0 0 0 0 0  0 0 0 0.2 0" type="matrix" in="shadowBlurOuter1" result="shadowMatrixOuter1"></feColorMatrix>
            <feMerge>
                <feMergeNode in="shadowMatrixOuter1"></feMergeNode>
                <feMergeNode in="SourceGraphic"></feMergeNode>
            </feMerge>
        </filter>
        <filter x="-43.8%" y="-166.7%" width="187.5%" height="566.7%" filterUnits="objectBoundingBox" id="filter-6">
            <feOffset dx="0" dy="2" in="SourceAlpha" result="shadowOffsetOuter1"></feOffset>
            <feGaussianBlur stdDeviation="2" in="shadowOffsetOuter1" result="shadowBlurOuter1"></feGaussianBlur>
            <feColorMatrix values="0 0 0 0 0   0 0 0 0 0   0 0 0 0 0  0 0 0 0.2 0" type="matrix" in="shadowBlurOuter1" result="shadowMatrixOuter1"></feColorMatrix>
            <feMerge>
                <feMergeNode in="shadowMatrixOuter1"></feMergeNode>
                <feMergeNode in="SourceGraphic"></feMergeNode>
            </feMerge>
        </filter>
        <filter x="-43.8%" y="-166.7%" width="187.5%" height="566.7%" filterUnits="objectBoundingBox" id="filter-7">
            <feOffset dx="0" dy="2" in="SourceAlpha" result="shadowOffsetOuter1"></feOffset>
            <feGaussianBlur stdDeviation="2" in="shadowOffsetOuter1" result="shadowBlurOuter1"></feGaussianBlur>
            <feColorMatrix values="0 0 0 0 0   0 0 0 0 0   0 0 0 0 0  0 0 0 0.2 0" type="matrix" in="shadowBlurOuter1" result="shadowMatrixOuter1"></feColorMatrix>
            <feMerge>
                <feMergeNode in="shadowMatrixOuter1"></feMergeNode>
                <feMergeNode in="SourceGraphic"></feMergeNode>
            </feMerge>
        </filter>
    </defs>
    <g id="Page-1" stroke="none" stroke-width="1" fill="none" fill-rule="evenodd">
        <g id="home" transform="translate(-1062.000000, -466.000000)" fill-rule="nonzero">
            <g id="drone" transform="translate(1066.000000, 469.000000)">
                <path d="M50.7352998,9.90354331 C50.7198834,9.91889764 53.356084,9.05905512 57.3643423,8.7519685 C59.2605568,8.61377953 66.5216708,8.16850394 65.0108658,7.37007874 C61.2184368,5.37401575 52.2769376,6.8480315 52.2769376,6.8480315 L50.7352998,9.90354331 Z" id="Shape" stroke="#E6E6E6" fill="#FFFFFF"></path>
                <path d="M24.6662047,8.98228346 C24.6816211,8.9976378 22.0454205,8.13779528 18.0371622,7.83070866 C16.1409477,7.69251969 8.87983369,7.24724409 10.3906387,6.4488189 C14.1830677,4.45275591 23.1245669,5.92677165 23.1245669,5.92677165 L24.6662047,8.98228346 Z" id="Shape" stroke="#E6E6E6" fill="#FFFFFF"></path>
                <g id="Shape">
                    <use fill="black" fill-opacity="1" filter="url(#filter-3)" xlink:href="#path-2"></use>
                    <use stroke="#E6E6E6" stroke-width="1" fill="url(#linearGradient-1)" fill-rule="evenodd" xlink:href="#path-2"></use>
                </g>
                <g id="Group" transform="translate(5.858224, 10.287402)">
                    <path d="M2.92911181,0.322440945 L2.92911181,1.71968504 C2.92911181,1.59685039 2.3741222,1.47401575 1.54163779,1.47401575 C0.709153385,1.47401575 0.154163779,1.59685039 0.154163779,1.71968504 L0.154163779,0.322440945 C0.154163779,0.199606299 0.709153385,0.0767716535 1.54163779,0.0767716535 C2.3741222,0.0767716535 2.92911181,0.199606299 2.92911181,0.322440945 Z" id="Shape" fill="#E6E6E6"></path>
                    <path d="M1.54163779,1.96535433 C0.709153385,1.96535433 0.154163779,1.84251969 0.154163779,1.71968504 L0.154163779,0.322440945 C0.154163779,0.445275591 0.770818897,0.568110236 1.54163779,0.568110236 L1.54163779,1.96535433 L1.54163779,0.568110236 C2.31245669,0.568110236 2.92911181,0.445275591 2.92911181,0.322440945 L2.92911181,0.491338583 L2.92911181,1.71968504 C2.92911181,1.82716535 2.3741222,1.96535433 1.54163779,1.96535433 Z" id="Shape" fill="#FFFFFF"></path>
                    <path d="M1.55705417,0.0153543307 C2.42037134,0.0153543307 3.11410834,0.153543307 3.11410834,0.322440945 C3.11410834,0.491338583 2.43578771,0.629527559 1.55705417,0.629527559 C0.678320629,0.629527559 0,0.491338583 0,0.322440945 C0,0.153543307 0.678320629,0.0153543307 1.55705417,0.0153543307 Z M1.55705417,0.568110236 C2.38953858,0.568110236 2.95994456,0.445275591 2.95994456,0.322440945 C2.95994456,0.199606299 2.40495496,0.0767716535 1.55705417,0.0767716535 C0.724569763,0.0767716535 0.154163779,0.199606299 0.154163779,0.322440945 C0.154163779,0.445275591 0.724569763,0.568110236 1.55705417,0.568110236 L1.55705417,0.568110236 Z" id="Shape" fill="#E6E6E6"></path>
                    <path d="M1.55705417,0.0767716535 C2.38953858,0.0767716535 2.95994456,0.21218832 2.95994456,0.347604987 C2.95994456,0.483021654 2.40495496,0.61843832 1.55705417,0.61843832 C0.709153385,0.61843832 0.154163779,0.483021654 0.154163779,0.347604987 C0.154163779,0.21218832 0.724569763,0.0767716535 1.55705417,0.0767716535 Z" id="Shape" fill="#FFFFFF"></path>
                    <path d="M3.08327559,0.322440945 L3.08327559,1.71968504 C3.08327559,1.88858268 2.40495496,2.02677165 1.54163779,2.02677165 C0.678320629,2.02677165 0,1.88858268 0,1.71968504 L0,0.322440945 C0,0.491338583 0.678320629,0.629527559 1.54163779,0.629527559 C2.40495496,0.629527559 3.08327559,0.491338583 3.08327559,0.322440945 Z" id="Shape" fill="#E6E6E6"></path>
                </g>
                <g id="Group" transform="translate(65.673770, 10.901575)">
                    <path d="M2.92911181,0.322440945 L2.92911181,1.71968504 C2.92911181,1.59685039 2.3741222,1.47401575 1.54163779,1.47401575 C0.709153385,1.47401575 0.154163779,1.59685039 0.154163779,1.71968504 L0.154163779,0.322440945 C0.154163779,0.199606299 0.709153385,0.0767716535 1.54163779,0.0767716535 C2.3741222,0.0767716535 2.92911181,0.199606299 2.92911181,0.322440945 Z" id="Shape" fill="#E6E6E6"></path>
                    <path d="M1.54163779,1.96535433 C0.709153385,1.96535433 0.154163779,1.84251969 0.154163779,1.71968504 L0.154163779,0.322440945 C0.154163779,0.445275591 0.770818897,0.568110236 1.54163779,0.568110236 L1.54163779,1.96535433 L1.54163779,0.568110236 C2.31245669,0.568110236 2.92911181,0.445275591 2.92911181,0.322440945 L2.92911181,0.491338583 L2.92911181,1.71968504 C2.92911181,1.82716535 2.3741222,1.96535433 1.54163779,1.96535433 Z" id="Shape" fill="#FFFFFF"></path>
                    <path d="M1.55705417,0.0767716535 C2.38953858,0.0767716535 2.95994456,0.21218832 2.95994456,0.347604987 C2.95994456,0.483021654 2.40495496,0.61843832 1.55705417,0.61843832 C0.724569763,0.61843832 0.154163779,0.483021654 0.154163779,0.347604987 C0.154163779,0.21218832 0.724569763,0.0767716535 1.55705417,0.0767716535 Z" id="Shape" fill="#FFFFFF"></path>
                    <path d="M1.55705417,0.0153543307 C2.42037134,0.0153543307 3.11410834,0.153543307 3.11410834,0.322440945 C3.11410834,0.491338583 2.43578771,0.629527559 1.55705417,0.629527559 C0.693737007,0.629527559 0,0.491338583 0,0.322440945 C0,0.153543307 0.678320629,0.0153543307 1.55705417,0.0153543307 Z M1.55705417,0.568110236 C2.38953858,0.568110236 2.95994456,0.445275591 2.95994456,0.322440945 C2.95994456,0.199606299 2.40495496,0.0767716535 1.55705417,0.0767716535 C0.724569763,0.0767716535 0.154163779,0.199606299 0.154163779,0.322440945 C0.154163779,0.445275591 0.724569763,0.568110236 1.55705417,0.568110236 L1.55705417,0.568110236 Z" id="Shape" fill="#E6E6E6"></path>
                    <path d="M3.08327559,0.322440945 L3.08327559,1.71968504 C3.08327559,1.88858268 2.40495496,2.02677165 1.54163779,2.02677165 C0.678320629,2.02677165 0,1.88858268 0,1.71968504 L0,0.322440945 C0,0.491338583 0.678320629,0.629527559 1.54163779,0.629527559 C2.40495496,0.629527559 3.08327559,0.491338583 3.08327559,0.322440945 Z" id="Shape" fill="#E6E6E6"></path>
                </g>
                <g id="Group" filter="url(#filter-4)" transform="translate(0.000000, 8.137795)" fill="#F2F2F2">
                    <path d="M0.154163779,4.05354331 L0.0924982676,3.82322835 C0.169580157,4.0996063 0.878733542,4.40669291 1.24872661,4.43740157 C1.63413606,4.46811024 2.25079118,4.36062992 2.95994456,4.16102362 C4.91782456,3.63897638 7.36902865,2.62559055 7.50777606,2.56417323 L7.56944157,2.79448819 C7.44611054,2.84055118 4.97949007,3.86929134 3.02161008,4.39133858 C2.31245669,4.57559055 1.6803852,4.6984252 1.31039212,4.66771654 C0.940399054,4.63700787 0.231245669,4.32992126 0.154163779,4.05354331 Z" id="Shape"></path>
                    <path d="M7.56944157,2.80984252 L7.50777606,2.57952756 C7.67735621,2.64094488 11.1614576,2.22637795 13.3197505,1.65826772 L13.3814161,1.88858268 C11.2231231,2.45669291 7.73902172,2.87125984 7.56944157,2.80984252 Z" id="Shape"></path>
                    <path d="M14.7843064,0.783070866 L14.845972,1.01338583 C14.8922211,1.18228346 14.8151392,1.3511811 14.5068116,1.48937008 C14.2139005,1.61220472 13.828491,1.7503937 13.3814161,1.87322835 L13.3197505,1.64291339 C13.7668255,1.52007874 14.1676513,1.39724409 14.4451461,1.25905512 C14.7380573,1.13622047 14.8151392,0.967322835 14.7843064,0.783070866 Z" id="Shape"></path>
                    <path d="M13.3043342,1.64291339 C11.1460412,2.21102362 7.67735621,2.64094488 7.49235968,2.56417323 C7.36902865,2.61023622 4.90240818,3.63897638 2.94452819,4.16102362 C2.2353748,4.34527559 1.60330331,4.46811024 1.23331024,4.43740157 C0.801651653,4.40669291 -0.0924982676,3.97677165 0.107914646,3.68503937 C0.323743937,3.37795276 0.940399054,3.13228346 1.72663433,2.91732283 C3.90034362,2.33385827 7.18403212,2.08818898 7.35361228,2.08818898 C7.49235968,2.02677165 10.1285603,0.813779528 12.1172731,0.291732283 C12.7493446,0.122834646 13.3197505,0.0307086614 13.6743272,0.0767716535 C14.1830677,0.138188976 15.3238797,0.87519685 14.4143134,1.28976378 C14.1522349,1.39724409 13.7514091,1.52007874 13.3043342,1.64291339 Z" id="Shape"></path>
                </g>
                <g id="Group" filter="url(#filter-5)" transform="translate(59.815546, 9.212598)" fill="#F2F2F2">
                    <path d="M0.138747401,0.598818898 L0.184996535,0.353149606 C0.138747401,0.629527559 0.647487873,1.21299213 0.97123181,1.39724409 C1.31039212,1.59685039 1.92704724,1.7503937 2.63620063,1.87322835 C4.62491338,2.22637795 7.29194676,2.33385827 7.43069417,2.3492126 L7.38444503,2.59488189 C7.24569763,2.59488189 4.57866425,2.47204724 2.58995149,2.11889764 C1.86538173,1.99606299 1.24872661,1.82716535 0.924982676,1.64291339 C0.60123874,1.45866142 0.0924982676,0.87519685 0.138747401,0.598818898 Z" id="Shape"></path>
                    <path d="M14.7843064,3.79251969 L14.7380573,4.04013873 C14.7072246,4.21037683 14.5684772,4.33418635 14.2293168,4.33418635 C13.9055729,4.33418635 13.5047471,4.27228159 13.0422557,4.19490064 L13.0885049,3.94728159 C13.5509962,4.02466254 13.951822,4.0865673 14.275566,4.0865673 C14.5993099,4.0865673 14.7534737,3.97823397 14.7843064,3.79251969 Z" id="Shape"></path>
                    <path d="M13.0885049,3.94606299 C10.8993792,3.56220472 7.56944157,2.47204724 7.43069417,2.3492126 C7.29194676,2.3492126 4.62491338,2.22637795 2.63620063,1.87322835 C1.91163086,1.7503937 1.29497575,1.58149606 0.97123181,1.39724409 C0.60123874,1.18228346 -0.0462491338,0.42992126 0.277494803,0.245669291 C0.60123874,0.0614173228 1.26414299,0.0921259843 2.06579464,0.230314961 C4.27033669,0.614173228 7.36902865,1.78110236 7.52319243,1.84251969 C7.67735621,1.84251969 10.5756353,1.85787402 12.6105972,2.21102362 C13.258085,2.31850394 13.8130746,2.47204724 14.1214022,2.67165354 C14.5684772,2.9480315 15.2776305,4.0996063 14.275566,4.08425197 C13.951822,4.08425197 13.5509962,4.02283465 13.0885049,3.94606299 Z" id="Shape"></path>
                    <path d="M7.39986141,2.57952756 L7.44611054,2.33385827 C7.56944157,2.47204724 10.8993792,3.54685039 13.1039212,3.93070866 L13.0576721,4.17637795 C10.8531301,3.80787402 7.52319243,2.71771654 7.39986141,2.57952756 Z" id="Shape"></path>
                </g>
                <g id="Group" transform="translate(13.412249, 5.066929)">
                    <path d="M2.15829291,0.353149606 L2.15829291,1.7503937 C2.15829291,1.67362205 1.74205071,1.58149606 1.15622835,1.58149606 C0.570405984,1.58149606 0.154163779,1.67362205 0.154163779,1.7503937 L0.154163779,0.353149606 C0.154163779,0.276377953 0.570405984,0.184251969 1.15622835,0.184251969 C1.74205071,0.184251969 2.15829291,0.261023622 2.15829291,0.353149606 Z" id="Shape" fill="#E6E6E6"></path>
                    <path d="M0.154163779,1.73503937 L0.154163779,1.61220472 L0.154163779,1.48937008 L0.154163779,1.3511811 L0.154163779,1.21299213 L0.154163779,1.07480315 L0.154163779,0.936614173 L0.154163779,0.798425197 L0.154163779,0.66023622 L0.154163779,0.614173228 L0.154163779,0.568110236 L0.154163779,0.522047244 L0.154163779,0.475984252 L0.154163779,0.42992126 L0.154163779,0.383858268 L0.154163779,0.337795276 L0.154163779,0.261023622 L0.123331024,0.261023622 C0.123331024,0.414566929 0.616655118,0.475984252 1.07914646,0.475984252 L1.07914646,1.87322835 L1.07914646,1.81181102 L1.07914646,1.7503937 L1.07914646,1.68897638 L1.07914646,1.62755906 L1.07914646,1.56614173 L1.07914646,1.50472441 L1.07914646,1.44330709 L1.07914646,1.38188976 L1.07914646,1.27440945 L1.07914646,1.16692913 L1.07914646,1.05944882 L1.07914646,0.951968504 L1.07914646,0.844488189 L1.07914646,0.737007874 L1.07914646,0.629527559 L1.07914646,0.522047244 C1.69580157,0.522047244 2.15829291,0.42992126 2.15829291,0.353149606 L2.15829291,0.522047244 L2.15829291,1.7503937 C2.15829291,1.82716535 1.74205071,1.91929134 1.15622835,1.91929134 C0.570405984,1.90393701 0.154163779,1.82716535 0.154163779,1.73503937 L0.154163779,0.506692913 L0.154163779,1.73503937 Z" id="Shape" fill="#FFFFFF"></path>
                    <path d="M1.15622835,0.184251969 C1.74205071,0.184251969 2.15829291,0.331979241 2.15829291,0.455085302 C2.15829291,0.578191362 1.74205071,0.725918635 1.15622835,0.725918635 C0.570405984,0.725918635 0.154163779,0.578191362 0.154163779,0.455085302 C0.154163779,0.307358029 0.570405984,0.184251969 1.15622835,0.184251969 Z" id="Shape" fill="#FFFFFF"></path>
                    <path d="M1.15622835,0.107480315 C1.80371622,0.107480315 2.31245669,0.233869204 2.31245669,0.378313648 C2.31245669,0.522758093 1.80371622,0.649146982 1.15622835,0.649146982 C0.508740472,0.649146982 0,0.522758093 0,0.378313648 C0,0.233869204 0.508740472,0.107480315 1.15622835,0.107480315 Z M1.15622835,0.594980315 C1.74205071,0.594980315 2.15829291,0.486646982 2.15829291,0.396369204 C2.15829291,0.306091426 1.74205071,0.197758093 1.15622835,0.197758093 C0.570405984,0.197758093 0.154163779,0.306091426 0.154163779,0.396369204 C0.154163779,0.486646982 0.570405984,0.594980315 1.15622835,0.594980315 L1.15622835,0.594980315 Z" id="Shape" fill="#E6E6E6"></path>
                    <path d="M2.31245669,0.353149606 L2.31245669,1.7503937 C2.31245669,1.88858268 1.80371622,1.98070866 1.15622835,1.98070866 C0.508740472,1.98070866 0,1.87322835 0,1.7503937 L0,0.353149606 C0,0.491338583 0.508740472,0.583464567 1.15622835,0.583464567 C1.80371622,0.583464567 2.31245669,0.475984252 2.31245669,0.353149606 Z" id="Shape" fill="#E6E6E6"></path>
                </g>
                <g id="Group" filter="url(#filter-6)" transform="translate(6.937370, 4.606299)" fill="#F2F2F2">
                    <path d="M0.154163779,0.690944882 L0.154163779,0.445275591 C0.154163779,0.721653543 0.739986141,1.21299213 1.09456283,1.33582677 C1.44913953,1.47401575 2.05037827,1.52007874 2.79036441,1.52007874 C4.80990992,1.52007874 7.39986141,1.16692913 7.55402519,1.1515748 L7.55402519,1.39724409 C7.39986141,1.41259843 4.79449354,1.76574803 2.77494803,1.76574803 C2.03496189,1.76574803 1.43372315,1.71968504 1.07914646,1.58149606 C0.724569763,1.45866142 0.154163779,0.967322835 0.154163779,0.690944882 Z" id="Shape"></path>
                    <path d="M15.1080504,1.30511811 L15.1080504,1.5507874 C15.1080504,1.71968504 14.9538866,1.87322835 14.6301427,1.91929134 C14.3063987,1.96535433 13.8747401,1.99606299 13.4122488,1.99606299 L13.4122488,1.7503937 C13.8747401,1.7503937 14.3218151,1.73503937 14.6301427,1.67362205 C14.9538866,1.62755906 15.1080504,1.48937008 15.1080504,1.30511811 Z" id="Shape"></path>
                    <path d="M13.4584979,1.7503937 C11.2231231,1.7503937 7.76985448,1.25905512 7.6156907,1.1515748 C7.4769433,1.16692913 4.82532629,1.52007874 2.80578078,1.52007874 C2.06579464,1.52007874 1.43372315,1.47401575 1.07914646,1.33582677 C0.662904251,1.18228346 -0.0924982676,0.552755906 0.184996535,0.322440945 C0.462491338,0.0921259843 1.12539559,2.84217094e-14 1.95788,2.84217094e-14 C4.20867118,2.84217094e-14 7.44611054,0.614173228 7.6156907,0.64488189 C7.76985448,0.614173228 10.6218844,0.138188976 12.687679,0.138188976 C13.3505833,0.138188976 13.9055729,0.184251969 14.2601496,0.322440945 C14.7380573,0.506692913 15.6476236,1.52007874 14.645559,1.68897638 C14.3372315,1.73503937 13.9209893,1.7503937 13.4584979,1.7503937 Z" id="Shape"></path>
                    <path d="M7.55402519,1.39724409 L7.55402519,1.1515748 C7.70818897,1.25905512 11.2539559,1.7503937 13.4122488,1.7503937 L13.4122488,1.99606299 C11.2539559,1.99606299 7.70818897,1.50472441 7.55402519,1.39724409 Z" id="Shape"></path>
                </g>
                <g id="Group" transform="translate(60.278038, 5.527559)">
                    <path d="M2.15829291,0.353149606 L2.15829291,1.7503937 C2.15829291,1.67362205 1.74205071,1.58149606 1.15622835,1.58149606 C0.570405984,1.58149606 0.154163779,1.67362205 0.154163779,1.7503937 L0.154163779,0.353149606 C0.154163779,0.276377953 0.570405984,0.184251969 1.15622835,0.184251969 C1.74205071,0.184251969 2.15829291,0.261023622 2.15829291,0.353149606 Z" id="Shape" fill="#E6E6E6"></path>
                    <path d="M0.154163779,1.73503937 L0.154163779,1.61220472 L0.154163779,1.48937008 L0.154163779,1.3511811 L0.154163779,1.21299213 L0.154163779,1.07480315 L0.154163779,0.936614173 L0.154163779,0.798425197 L0.154163779,0.66023622 L0.154163779,0.614173228 L0.154163779,0.568110236 L0.154163779,0.522047244 L0.154163779,0.475984252 L0.154163779,0.42992126 L0.154163779,0.383858268 L0.154163779,0.337795276 L0.154163779,0.291732283 C0.154163779,0.368503937 0.616655118,0.460629921 1.07914646,0.460629921 L1.07914646,1.85787402 L1.07914646,0.460629921 C1.69580157,0.460629921 2.11204378,0.399212598 2.11204378,0.245669291 L2.15829291,0.245669291 L2.15829291,0.445275591 L2.15829291,1.67362205 C2.15829291,1.7503937 1.74205071,1.84251969 1.15622835,1.84251969 C0.570405984,1.84251969 0.154163779,1.82716535 0.154163779,1.73503937 L0.154163779,0.506692913 L0.154163779,0.522047244 L0.154163779,0.537401575 L0.154163779,0.552755906 L0.154163779,0.568110236 L0.154163779,0.583464567 L0.154163779,0.598818898 L0.154163779,0.614173228 L0.154163779,0.629527559 L0.154163779,0.767716535 L0.154163779,0.905905512 L0.154163779,1.04409449 L0.154163779,1.18228346 L0.154163779,1.32047244 L0.154163779,1.45866142 L0.154163779,1.58149606 L0.154163779,1.73503937 Z" id="Shape" fill="#FFFFFF"></path>
                    <path d="M1.15622835,0.184251969 C1.74205071,0.184251969 2.15829291,0.331979241 2.15829291,0.455085302 C2.15829291,0.578191362 1.74205071,0.725918635 1.15622835,0.725918635 C0.570405984,0.725918635 0.154163779,0.578191362 0.154163779,0.455085302 C0.154163779,0.331979241 0.570405984,0.184251969 1.15622835,0.184251969 Z" id="Shape" fill="#FFFFFF"></path>
                    <path d="M1.15622835,0.107480315 C1.80371622,0.107480315 2.31245669,0.233869204 2.31245669,0.378313648 C2.31245669,0.540813648 1.80371622,0.649146982 1.15622835,0.649146982 C0.508740472,0.649146982 0,0.522758093 0,0.378313648 C0,0.233869204 0.508740472,0.107480315 1.15622835,0.107480315 Z M1.15622835,0.594980315 C1.74205071,0.594980315 2.15829291,0.486646982 2.15829291,0.396369204 C2.15829291,0.306091426 1.74205071,0.197758093 1.15622835,0.197758093 C0.570405984,0.197758093 0.154163779,0.306091426 0.154163779,0.396369204 C0.154163779,0.486646982 0.570405984,0.594980315 1.15622835,0.594980315 L1.15622835,0.594980315 Z" id="Shape" fill="#E6E6E6"></path>
                    <path d="M2.31245669,0.353149606 L2.31245669,1.7503937 C2.31245669,1.88858268 1.80371622,1.98070866 1.15622835,1.98070866 C0.508740472,1.98070866 0,1.87322835 0,1.7503937 L0,0.353149606 C0,0.491338583 0.508740472,0.583464567 1.15622835,0.583464567 C1.80371622,0.583464567 2.31245669,0.475984252 2.31245669,0.353149606 Z" id="Shape" fill="#E6E6E6"></path>
                </g>
                <g id="Group" filter="url(#filter-7)" transform="translate(53.803159, 5.066929)" fill="#F2F2F2">
                    <path d="M0.154163779,0.690944882 L0.154163779,0.445275591 C0.154163779,0.721653543 0.739986141,1.21299213 1.09456283,1.33582677 C1.44913953,1.47401575 2.05037827,1.52007874 2.79036441,1.52007874 C4.80990992,1.52007874 7.39986141,1.16692913 7.55402519,1.1515748 L7.55402519,1.39724409 C7.39986141,1.41259843 4.79449354,1.76574803 2.77494803,1.76574803 C2.03496189,1.76574803 1.43372315,1.71968504 1.07914646,1.58149606 C0.724569763,1.45866142 0.154163779,0.967322835 0.154163779,0.690944882 Z" id="Shape"></path>
                    <path d="M15.1080504,1.30511811 L15.1080504,1.5507874 C15.1080504,1.71968504 14.9538866,1.87322835 14.6301427,1.91929134 C14.3218151,1.96535433 13.8747401,1.99606299 13.4122488,1.99606299 L13.4122488,1.7503937 C13.8747401,1.7503937 14.3218151,1.73503937 14.6301427,1.67362205 C14.9538866,1.62755906 15.1080504,1.48937008 15.1080504,1.30511811 Z" id="Shape"></path>
                    <path d="M13.4584979,1.7503937 C11.2231231,1.7503937 7.7544381,1.25905512 7.6156907,1.1515748 C7.4769433,1.16692913 4.82532629,1.52007874 2.80578078,1.52007874 C2.06579464,1.52007874 1.43372315,1.47401575 1.07914646,1.33582677 C0.662904251,1.18228346 -0.0924982676,0.552755906 0.184996535,0.322440945 C0.462491338,0.0921259843 1.12539559,2.84217094e-14 1.95788,2.84217094e-14 C4.20867118,2.84217094e-14 7.44611054,0.614173228 7.6156907,0.64488189 C7.76985448,0.614173228 10.6218844,0.138188976 12.687679,0.138188976 C13.3505833,0.138188976 13.9055729,0.184251969 14.2601496,0.322440945 C14.7380573,0.506692913 15.6476236,1.52007874 14.645559,1.68897638 C14.3372315,1.73503937 13.9209893,1.7503937 13.4584979,1.7503937 Z" id="Shape"></path>
                    <path d="M7.55402519,1.39724409 L7.55402519,1.1515748 C7.70818897,1.25905512 11.2539559,1.7503937 13.4122488,1.7503937 L13.4122488,1.99606299 C11.2539559,1.99606299 7.70818897,1.50472441 7.55402519,1.39724409 Z" id="Shape"></path>
                </g>
            </g>
        </g>
    </g>
</svg>