<?xml version="1.0" encoding="UTF-8"?>
<svg width="130px" height="137px" viewBox="0 0 130 137" version="1.1" xmlns="http://www.w3.org/2000/svg" xmlns:xlink="http://www.w3.org/1999/xlink">
    <!-- Generator: Sketch 43.2 (39069) - http://www.bohemiancoding.com/sketch -->
    <title>Group 3</title>
    <desc>Created with Sketch.</desc>
    <defs></defs>
    <g id="Page-1" stroke="none" stroke-width="1" fill="none" fill-rule="evenodd" opacity="0.5">
        <g id="home" transform="translate(-1129.000000, -884.000000)">
            <g id="Group-3" transform="translate(1130.000000, 884.000000)">
                <g id="Page-1" transform="translate(71.000000, 72.000000)">
                    <path d="M0.8913,17.2822 L17.8773,0.2962" id="Stroke-1" stroke="#020302" stroke-width="2" stroke-linecap="round" stroke-linejoin="round"></path>
                    <g id="Group-38" transform="translate(2.000000, 1.787400)">
                        <path d="M36.1925156,26.0006432 C42.651577,32.4597046 44.6891194,36.1867894 44.8127963,41.0166495 C45.0689138,51.0186088 43.74991,53.8091365 36.9541745,53.8091365 C32.2346138,53.8091365 30.8874752,48.339501 30.8560691,40.9210106 C30.8201613,32.4391819 30.830174,24.4072361 30.9261583,20.7342859 L36.1925156,26.0006432 Z" id="Stroke-8" fill="#EE7D8B" transform="translate(37.839570, 37.271711) rotate(-45.000000) translate(-37.839570, -37.271711) "></path>
                        <path d="M51.8246,50.8576 L51.2406,51.4416 C47.8296,54.8526 42.2996,54.8526 38.8886,51.4416 L0.9166,13.4696 L13.8526,0.5336 L51.8246,38.5056 C55.2356,41.9166 55.2356,47.4466 51.8246,50.8576 Z" id="Stroke-2" stroke="#020302" stroke-width="2" stroke-linecap="round" stroke-linejoin="round"></path>
                        <path d="M42.8586,29.9524 L38.7106,34.1004" id="Stroke-4" stroke="#020302" stroke-width="2" stroke-linecap="round" stroke-linejoin="round"></path>
                        <path d="M38.748,25.8418 L34.601,29.9898" id="Stroke-6" stroke="#020302" stroke-width="2" stroke-linecap="round" stroke-linejoin="round"></path>
                        <path d="M34.6375,21.7313 L30.4895,25.8783" id="Stroke-8" stroke="#020302" stroke-width="2" stroke-linecap="round" stroke-linejoin="round"></path>
                        <path d="M30.5269,17.6207 L26.3789,21.7687" id="Stroke-10" stroke="#020302" stroke-width="2" stroke-linecap="round" stroke-linejoin="round"></path>
                        <path d="M26.4162,13.5101 L22.2692,17.6571" id="Stroke-12" stroke="#020302" stroke-width="2" stroke-linecap="round" stroke-linejoin="round"></path>
                        <path d="M22.3058,9.3996 L18.1578,13.5466" id="Stroke-14" stroke="#020302" stroke-width="2" stroke-linecap="round" stroke-linejoin="round"></path>
                    </g>
                </g>
                <g id="Page-1" transform="translate(0.000000, 56.000000)">
                    <path d="M17.3226,14.3448 L23.8656,14.3448" id="Stroke-1" stroke="#020302" stroke-width="2" stroke-linecap="round" stroke-linejoin="round"></path>
                    <path d="M17.3226,7.6953 L23.8656,7.6953" id="Stroke-2" stroke="#020302" stroke-width="2" stroke-linecap="round" stroke-linejoin="round"></path>
                    <path d="M67.1986,15.4144 L44.0376,15.4144" id="Stroke-3" stroke="#020302" stroke-width="2" stroke-linecap="round" stroke-linejoin="round"></path>
                    <path d="M47.4711,27.0391 L53.1261,27.0391" id="Stroke-4" stroke="#020302" stroke-width="2" stroke-linecap="round" stroke-linejoin="round"></path>
                    <path d="M47.4711,21.2922 L53.1261,21.2922" id="Stroke-5" stroke="#020302" stroke-width="2" stroke-linecap="round" stroke-linejoin="round"></path>
                    <g id="Group-20" transform="translate(0.000000, 0.223800)">
                        <path d="M40.7238,0.7762 L13.9258,0.7762" id="Stroke-10" stroke="#020302" stroke-width="2" stroke-linecap="round" stroke-linejoin="round"></path>
                        <path d="M42.0149,74.8808 L5.0119,74.8808 C1.5539,74.8808 -0.8641,71.3718 0.2919,68.0288 L15.8889,22.9348 C16.7039,20.5778 17.1209,18.0958 17.1209,15.5948 L17.1209,1.2248" id="Stroke-12" stroke="#020302" stroke-width="2" stroke-linecap="round" stroke-linejoin="round"></path>
                        <path d="M37.3926,1.0003 L37.3926,15.3703 C37.3926,17.8713 37.8096,20.3543 38.6246,22.7113 L42.1726,32.9663" id="Stroke-14" stroke="#020302" stroke-width="2" stroke-linecap="round" stroke-linejoin="round"></path>
                        <path d="M19.4658,31.764 L7.7528,65.437 C7.2768,66.812 8.2718,68.256 9.6948,68.256 L49.1220703,68.256 L50.7255859,66.0340125 L35.5548,31.764 L19.4658,31.764 Z" id="Stroke-18-fill" fill="#ACCFF1"></path>
                        <path d="M64.4372,15.578 L64.4372,31.264 C73.3902,34.875 79.7312,43.813 79.7312,54.275 C79.7312,67.93 68.9352,79 55.6182,79 C42.3012,79 31.5052,67.93 31.5052,54.275 C31.5052,43.813 37.8452,34.875 46.7992,31.264 L46.7992,15.578" id="Stroke-6" stroke="#020302" stroke-width="2" stroke-linecap="round" stroke-linejoin="round"></path>
                        <path d="M73.1632,47.8191 C73.9192,49.9041 74.3532,52.1501 74.3532,54.5051 C74.3532,65.1151 65.9652,73.7151 55.6182,73.7151 C45.2712,73.7151 36.8832,65.1151 36.8832,54.5051 C36.8832,52.1501 37.3172,49.9041 38.0732,47.8191 L73.1632,47.8191 Z" id="Stroke-8" fill-opacity="0.6" fill="#48AD21"></path>
                    </g>
                </g>
                <g id="Page-1" transform="translate(2.000000, 0.000000)">
                    <polygon id="Fill-19" fill="#F8E81C" points="52.286 32 51.571 33.415 50 33.628 51.125 34.745 50.842 36.306 52.252 35.581 53.648 36.332 53.395 34.767 54.541 33.671 52.974 33.428"></polygon>
                    <polygon id="Stroke-21" fill="#FFC603" points="52.286 32 51.571 33.415 50 33.628 51.125 34.745 50.842 36.306 52.252 35.581 53.648 36.332 53.395 34.767 54.541 33.671 52.974 33.428"></polygon>
                    <polygon id="Fill-23" fill="#F8E81C" points="44.656 0 43.566 1.152 42 0.907 42.759 2.299 42.042 3.714 43.6 3.422 44.724 4.541 44.928 2.969 46.34 2.246 44.907 1.566"></polygon>
                    <polygon id="Stroke-25" fill="#FFC603" points="18.656 22 17.566 23.152 16 22.907 16.759 24.299 16.042 25.714 17.6 25.422 18.724 26.541 18.928 24.969 20.34 24.246 18.907 23.566"></polygon>
                    <polygon id="Fill-27" fill="#F8E81C" points="18.285 5.592 18.877 7.063 18 8.384 19.582 8.276 20.568 9.518 20.954 7.98 22.44 7.426 21.096 6.584 21.029 5 19.812 6.017"></polygon>
                    <polygon id="Stroke-29" fill="#FFC603" points="46.285 15.592 46.877 17.063 46 18.384 47.582 18.276 48.568 19.518 48.954 17.98 50.44 17.426 49.096 16.584 49.029 15 47.812 16.017"></polygon>
                    <polygon id="Fill-31" fill="#F8E81C" points="11.8502 39.4374 12.4422 40.9084 11.5652 42.2294 13.1472 42.1214 14.1332 43.3634 14.5192 41.8254 16.0052 41.2714 14.6612 40.4294 14.5942 38.8454 13.3772 39.8624"></polygon>
                    <polygon id="Stroke-33" fill="#FFC603" points="11.8502 39.4374 12.4422 40.9084 11.5652 42.2294 13.1472 42.1214 14.1332 43.3634 14.5192 41.8254 16.0052 41.2714 14.6612 40.4294 14.5942 38.8454 13.3772 39.8624"></polygon>
                    <polygon id="Fill-35" fill="#F8E81C" points="1.0404 55.1768 1.6324 56.6478 0.7554 57.9688 2.3374 57.8608 3.3234 59.1028 3.7094 57.5648 5.1954 57.0108 3.8514 56.1688 3.7834 54.5848 2.5674 55.6018"></polygon>
                    <polygon id="Stroke-37" fill="#FFC603" points="1.0404 55.1768 1.6324 56.6478 0.7554 57.9688 2.3374 57.8608 3.3234 59.1028 3.7094 57.5648 5.1954 57.0108 3.8514 56.1688 3.7834 54.5848 2.5674 55.6018"></polygon>
                    <polygon id="Fill-39" fill="#F8E81C" points="29.285 23.592 29.877 25.063 29 26.384 30.582 26.276 31.568 27.518 31.954 25.98 33.44 25.426 32.096 24.584 32.029 23 30.812 24.017"></polygon>
                    <polygon id="Stroke-41" fill="#FFC603" points="46.285 43.592 46.877 45.063 46 46.384 47.582 46.276 48.568 47.518 48.954 45.98 50.44 45.426 49.096 44.584 49.029 43 47.812 44.017"></polygon>
                    <polygon id="Fill-43" fill="#F8E81C" points="66.2979 19.0753 65.5709 20.4843 63.9989 20.6843 65.1139 21.8113 64.8189 23.3693 66.2349 22.6563 67.6249 23.4183 67.3849 21.8513 68.5389 20.7653 66.9739 20.5093"></polygon>
                    <polygon id="Stroke-45" fill="#FFC603" points="67.299 52 66.572 53.409 65 53.609 66.115 54.736 65.82 56.294 67.236 55.581 68.626 56.343 68.386 54.776 69.54 53.69 67.975 53.434"></polygon>
                    <polygon id="Fill-47" fill="#F8E81C" points="75.8066 36.5603 75.0796 37.9693 73.5076 38.1693 74.6226 39.2963 74.3276 40.8543 75.7436 40.1413 77.1336 40.9033 76.8926 39.3363 78.0476 38.2503 76.4826 37.9943"></polygon>
                    <polygon id="Stroke-49" fill="#FFC603" points="91.299 59 90.572 60.409 89 60.609 90.115 61.736 89.82 63.294 91.236 62.581 92.626 63.343 92.385 61.776 93.54 60.69 91.975 60.434"></polygon>
                </g>
            </g>
        </g>
    </g>
</svg>