<?xml version="1.0" encoding="UTF-8"?>
<svg width="113px" height="138px" viewBox="0 0 113 138" version="1.1" xmlns="http://www.w3.org/2000/svg" xmlns:xlink="http://www.w3.org/1999/xlink">
    <!-- Generator: Sketch 43.2 (39069) - http://www.bohemiancoding.com/sketch -->
    <title>Group 2</title>
    <desc>Created with Sketch.</desc>
    <defs></defs>
    <g id="Page-1" stroke="none" stroke-width="1" fill="none" fill-rule="evenodd">
        <g id="home" transform="translate(-1141.000000, -1398.000000)">
            <g id="Group-2" transform="translate(1141.000000, 1399.000000)">
                <g id="Page-1" opacity="0.449331975" stroke="#020302" stroke-width="2" stroke-linecap="round" stroke-linejoin="round">
                    <polygon id="Stroke-1" points="6.38249091 70.7123485 105.945455 70.7123485 105.945455 8.25646618 6.38249091 8.25646618"></polygon>
                    <path d="M107.192085,8.25626471 L5.13464909,8.25626471 C2.86015818,8.25626471 0.999394545,6.39870588 0.999394545,4.12813235 C0.999394545,1.85755882 2.86015818,0 5.13464909,0 L107.192085,0 C109.466576,0 111.32734,1.85755882 111.32734,4.12813235 C111.32734,6.39870588 109.466576,8.25626471 107.192085,8.25626471 Z" id="Stroke-3"></path>
                    <path d="M107.192085,78.9684118 L5.13464909,78.9684118 C2.86015818,78.9684118 0.999394545,77.1108529 0.999394545,74.8402794 C0.999394545,72.5697059 2.86015818,70.7121471 5.13464909,70.7121471 L107.192085,70.7121471 C109.466576,70.7121471 111.32734,72.5697059 111.32734,74.8402794 C111.32734,77.1108529 109.466576,78.9684118 107.192085,78.9684118 Z" id="Stroke-4"></path>
                    <path d="M66.64984,78.9684118 L66.64984,83.5982059 C66.64984,89.3562353 61.9313309,94.0666176 56.1633673,94.0666176 C50.3954036,94.0666176 45.6768945,89.3562353 45.6768945,83.5982059 L45.6768945,78.9684118" id="Stroke-5"></path>
                    <path d="M56.1637709,94.0668191 L56.1637709,135.557672" id="Stroke-6"></path>
                    <path d="M47.5047618,89.4809456 L33.1897982,129.192813" id="Stroke-7"></path>
                    <path d="M65.5412527,89.4809456 L79.8562164,129.192813" id="Stroke-8"></path>
                </g>
                <g id="Page-1" opacity="0.357053895" transform="translate(35.000000, 20.000000)">
                    <polygon id="Stroke-1" fill="#83B14D" points="11.3603226 35.867741 19.2495484 35.867741 19.2495484 0.00013442623 11.3603226 0.00013442623"></polygon>
                    <polygon id="Stroke-3" fill="#83B14D" points="22.7206452 35.867741 30.609871 35.867741 30.609871 6.12728197 22.7206452 6.12728197"></polygon>
                    <g id="Group-8" transform="translate(0.000000, 0.727380)">
                        <polygon id="Stroke-4" fill="#83B14D" points="0 35.1403607 7.88922581 35.1403607 7.88922581 16.6352459 0 16.6352459"></polygon>
                        <polygon id="Stroke-6" fill="#83B14D" points="34.0809677 35.1403607 41.9701935 35.1403607 41.9701935 0.29304918 34.0809677 0.29304918"></polygon>
                        <path d="M0,38.9836066 L41.9701935,38.9836066" id="Stroke-7" stroke="#020302" stroke-width="2" stroke-linecap="round" stroke-linejoin="round"></path>
                    </g>
                    <polyline id="Stroke-9" stroke="#056406" stroke-width="2" stroke-linecap="round" stroke-linejoin="round" points="3.94474839 24.8850508 15.305071 16.2427885 26.9939419 28.9178377 38.7112645 19.5369033"></polyline>
                    <polyline id="Stroke-10" stroke="#056406" stroke-width="2" stroke-linecap="round" stroke-linejoin="round" points="36.6702677 18.9589377 39.3799452 18.9589377 39.3799452 21.3113967"></polyline>
                </g>
            </g>
        </g>
    </g>
</svg>