
<svg viewBox="0 0 25 25" version="1.1" xmlns="http://www.w3.org/2000/svg" xmlns:xlink="http://www.w3.org/1999/xlink">
    <!-- Generator: Sketch 43.2 (39069) - http://www.bohemiancoding.com/sketch -->
    <desc>Created with Sketch.</desc>
    <defs></defs>
    <g id="Page-1" stroke="none" stroke-width="1" fill="none" fill-rule="evenodd">
        <g id="home" transform="translate(-913.000000, -2383.000000)" fill-rule="nonzero" fill="#F1F2F2">
            <g id="ig" transform="translate(913.000000, 2383.000000)">
                <path d="M12.4862637,24.8611111 C10.4945055,24.8611111 8.50274725,24.9583333 6.52472527,24.8333333 C2.89835165,24.625 0.302197802,22.0833333 0.164835165,18.4305556 C0.0137362637,14.4305556 0.0274725275,10.4305556 0.178571429,6.43055556 C0.302197802,3.01388889 2.92582418,0.319444444 6.31868132,0.194444444 C10.4258242,0.0416666667 14.5604396,0.0416666667 18.6675824,0.194444444 C22.0879121,0.319444444 24.7115385,3.01388889 24.8351648,6.47222222 C24.9725275,10.4861111 24.9725275,14.5277778 24.8351648,18.5416667 C24.7115385,22.0277778 22.0604396,24.6388889 18.5989011,24.8333333 C16.5521978,24.9444444 14.5192308,24.8472222 12.4862637,24.8611111 L12.4862637,24.8611111 Z M12.5274725,2.34722222 C10.782967,2.34722222 9.0521978,2.31944444 7.30769231,2.36111111 C4.21703297,2.43055556 2.43131868,4.15277778 2.36263736,7.27777778 C2.28021978,10.75 2.28021978,14.2222222 2.36263736,17.6944444 C2.43131868,20.8611111 4.21703297,22.6111111 7.3489011,22.6527778 C10.7967033,22.6944444 14.2582418,22.6944444 17.7197802,22.6527778 C20.8104396,22.6111111 22.5961538,20.8611111 22.6648352,17.7361111 C22.7472527,14.2638889 22.7472527,10.7916667 22.6648352,7.31944444 C22.5961538,4.15277778 20.8104396,2.43055556 17.6785714,2.36111111 C15.9478022,2.31944444 14.2307692,2.34722222 12.5274725,2.34722222 Z" id="Shape"></path>
                <path d="M12.4725275,18.9166667 C8.9010989,18.9027778 6.03021978,16.0138889 6.05769231,12.4444444 C6.08516484,8.91666667 8.96978022,6.06944444 12.5137363,6.08333333 C16.0851648,6.09722222 18.956044,8.98611111 18.9285714,12.5555556 C18.9148352,16.0833333 16.0164835,18.9305556 12.4725275,18.9166667 Z M16.6483516,12.5277778 C16.6620879,10.2083333 14.8076923,8.34722222 12.5137363,8.33333333 C10.2472527,8.33333333 8.37912088,10.1805556 8.35164835,12.4305556 C8.33791209,14.75 10.1510989,16.625 12.4450549,16.6527778 C14.739011,16.6944444 16.6346154,14.8194444 16.6483516,12.5277778 Z" id="Shape"></path>
                <path d="M17.6785714,5.86111111 C17.6648352,5.04166667 18.2967033,4.36111111 19.1071429,4.31944444 C19.9450549,4.27777778 20.6593407,4.95833333 20.6868132,5.79166667 C20.7142857,6.61111111 20,7.33333333 19.1758242,7.33333333 C18.3653846,7.34722222 17.6923077,6.68055556 17.6785714,5.86111111 Z" id="Shape"></path>
            </g>
        </g>
    </g>
</svg>