
<svg viewBox="0 0 113 138" version="1.1" xmlns="http://www.w3.org/2000/svg" xmlns:xlink="http://www.w3.org/1999/xlink">
    <!-- Generator: Sketch 43.2 (39069) - http://www.bohemiancoding.com/sketch -->
    <desc>Created with Sketch.</desc>
    <defs></defs>
    <g id="Page-1" stroke="none" stroke-width="1" fill="none" fill-rule="evenodd" stroke-linecap="round" opacity="0.449331975" stroke-linejoin="round">
        <g id="home" transform="translate(-1141.000000, -1398.000000)" stroke="#020302" stroke-width="2">
            <g id="Page-1" transform="translate(1141.000000, 1399.000000)">
                <polygon id="Stroke-1" points="6.38249091 70.7123485 105.945455 70.7123485 105.945455 8.25646618 6.38249091 8.25646618"></polygon>
                <path d="M107.192085,8.25626471 L5.13464909,8.25626471 C2.86015818,8.25626471 0.999394545,6.39870588 0.999394545,4.12813235 C0.999394545,1.85755882 2.86015818,0 5.13464909,0 L107.192085,0 C109.466576,0 111.32734,1.85755882 111.32734,4.12813235 C111.32734,6.39870588 109.466576,8.25626471 107.192085,8.25626471 Z" id="Stroke-3"></path>
                <path d="M107.192085,78.9684118 L5.13464909,78.9684118 C2.86015818,78.9684118 0.999394545,77.1108529 0.999394545,74.8402794 C0.999394545,72.5697059 2.86015818,70.7121471 5.13464909,70.7121471 L107.192085,70.7121471 C109.466576,70.7121471 111.32734,72.5697059 111.32734,74.8402794 C111.32734,77.1108529 109.466576,78.9684118 107.192085,78.9684118 Z" id="Stroke-4"></path>
                <path d="M66.64984,78.9684118 L66.64984,83.5982059 C66.64984,89.3562353 61.9313309,94.0666176 56.1633673,94.0666176 C50.3954036,94.0666176 45.6768945,89.3562353 45.6768945,83.5982059 L45.6768945,78.9684118" id="Stroke-5"></path>
                <path d="M56.1637709,94.0668191 L56.1637709,135.557672" id="Stroke-6"></path>
                <path d="M47.5047618,89.4809456 L33.1897982,129.192813" id="Stroke-7"></path>
                <path d="M65.5412527,89.4809456 L79.8562164,129.192813" id="Stroke-8"></path>
            </g>
        </g>
    </g>
</svg>