
<svg viewBox="0 0 130 81" version="1.1" xmlns="http://www.w3.org/2000/svg" xmlns:xlink="http://www.w3.org/1999/xlink">
    <!-- Generator: Sketch 43.2 (39069) - http://www.bohemiancoding.com/sketch -->
    <desc>Created with Sketch.</desc>
    <defs></defs>
    <g id="Page-1" stroke="none" stroke-width="1" fill="none" fill-rule="evenodd" opacity="0.5">
        <g id="home" transform="translate(-1129.000000, -940.000000)">
            <g id="Page-1" transform="translate(1201.000000, 956.000000)">
                <path d="M0.8913,17.2822 L17.8773,0.2962" id="Stroke-1" stroke="#020302" stroke-width="2" stroke-linecap="round" stroke-linejoin="round"></path>
                <g id="Group-38" transform="translate(2.000000, 1.787400)">
                    <path d="M36.1925156,26.0006432 C42.651577,32.4597046 44.6891194,36.1867894 44.8127963,41.0166495 C45.0689138,51.0186088 43.74991,53.8091365 36.9541745,53.8091365 C32.2346138,53.8091365 30.8874752,48.339501 30.8560691,40.9210106 C30.8201613,32.4391819 30.830174,24.4072361 30.9261583,20.7342859 L36.1925156,26.0006432 Z" id="Stroke-8" fill="#EE7D8B" transform="translate(37.839570, 37.271711) rotate(-45.000000) translate(-37.839570, -37.271711) "></path>
                    <path d="M51.8246,50.8576 L51.2406,51.4416 C47.8296,54.8526 42.2996,54.8526 38.8886,51.4416 L0.9166,13.4696 L13.8526,0.5336 L51.8246,38.5056 C55.2356,41.9166 55.2356,47.4466 51.8246,50.8576 Z" id="Stroke-2" stroke="#020302" stroke-width="2" stroke-linecap="round" stroke-linejoin="round"></path>
                    <path d="M42.8586,29.9524 L38.7106,34.1004" id="Stroke-4" stroke="#020302" stroke-width="2" stroke-linecap="round" stroke-linejoin="round"></path>
                    <path d="M38.748,25.8418 L34.601,29.9898" id="Stroke-6" stroke="#020302" stroke-width="2" stroke-linecap="round" stroke-linejoin="round"></path>
                    <path d="M34.6375,21.7313 L30.4895,25.8783" id="Stroke-8" stroke="#020302" stroke-width="2" stroke-linecap="round" stroke-linejoin="round"></path>
                    <path d="M30.5269,17.6207 L26.3789,21.7687" id="Stroke-10" stroke="#020302" stroke-width="2" stroke-linecap="round" stroke-linejoin="round"></path>
                    <path d="M26.4162,13.5101 L22.2692,17.6571" id="Stroke-12" stroke="#020302" stroke-width="2" stroke-linecap="round" stroke-linejoin="round"></path>
                    <path d="M22.3058,9.3996 L18.1578,13.5466" id="Stroke-14" stroke="#020302" stroke-width="2" stroke-linecap="round" stroke-linejoin="round"></path>
                </g>
            </g>
            <g id="Page-1" transform="translate(1130.000000, 940.000000)">
                <path d="M17.3226,14.3448 L23.8656,14.3448" id="Stroke-1" stroke="#020302" stroke-width="2" stroke-linecap="round" stroke-linejoin="round"></path>
                <path d="M17.3226,7.6953 L23.8656,7.6953" id="Stroke-2" stroke="#020302" stroke-width="2" stroke-linecap="round" stroke-linejoin="round"></path>
                <path d="M67.1986,15.4144 L44.0376,15.4144" id="Stroke-3" stroke="#020302" stroke-width="2" stroke-linecap="round" stroke-linejoin="round"></path>
                <path d="M47.4711,27.0391 L53.1261,27.0391" id="Stroke-4" stroke="#020302" stroke-width="2" stroke-linecap="round" stroke-linejoin="round"></path>
                <path d="M47.4711,21.2922 L53.1261,21.2922" id="Stroke-5" stroke="#020302" stroke-width="2" stroke-linecap="round" stroke-linejoin="round"></path>
                <g id="Group-20" transform="translate(0.000000, 0.223800)">
                    <path d="M40.7238,0.7762 L13.9258,0.7762" id="Stroke-10" stroke="#020302" stroke-width="2" stroke-linecap="round" stroke-linejoin="round"></path>
                    <path d="M42.0149,74.8808 L5.0119,74.8808 C1.5539,74.8808 -0.8641,71.3718 0.2919,68.0288 L15.8889,22.9348 C16.7039,20.5778 17.1209,18.0958 17.1209,15.5948 L17.1209,1.2248" id="Stroke-12" stroke="#020302" stroke-width="2" stroke-linecap="round" stroke-linejoin="round"></path>
                    <path d="M37.3926,1.0003 L37.3926,15.3703 C37.3926,17.8713 37.8096,20.3543 38.6246,22.7113 L42.1726,32.9663" id="Stroke-14" stroke="#020302" stroke-width="2" stroke-linecap="round" stroke-linejoin="round"></path>
                    <path d="M19.4658,31.764 L7.7528,65.437 C7.2768,66.812 8.2718,68.256 9.6948,68.256 L49.1220703,68.256 L50.7255859,66.0340125 L35.5548,31.764 L19.4658,31.764 Z" id="Stroke-18-fill" fill="#ACCFF1"></path>
                    <path d="M64.4372,15.578 L64.4372,31.264 C73.3902,34.875 79.7312,43.813 79.7312,54.275 C79.7312,67.93 68.9352,79 55.6182,79 C42.3012,79 31.5052,67.93 31.5052,54.275 C31.5052,43.813 37.8452,34.875 46.7992,31.264 L46.7992,15.578" id="Stroke-6" stroke="#020302" stroke-width="2" stroke-linecap="round" stroke-linejoin="round"></path>
                    <path d="M73.1632,47.8191 C73.9192,49.9041 74.3532,52.1501 74.3532,54.5051 C74.3532,65.1151 65.9652,73.7151 55.6182,73.7151 C45.2712,73.7151 36.8832,65.1151 36.8832,54.5051 C36.8832,52.1501 37.3172,49.9041 38.0732,47.8191 L73.1632,47.8191 Z" id="Stroke-8" fill-opacity="0.6" fill="#48AD21"></path>
                </g>
            </g>
        </g>
    </g>
</svg>