<?xml version="1.0" encoding="utf-8"?>
<!-- Generator: Adobe Illustrator 18.1.1, SVG Export Plug-In . SVG Version: 6.00 Build 0)  -->
<svg version="1.1" xmlns="http://www.w3.org/2000/svg" xmlns:xlink="http://www.w3.org/1999/xlink" x="0px" y="0px"
	 viewBox="0 0 56 56.3" enable-background="new 0 0 56 56.3" xml:space="preserve">
<g id="Glyphish_6_Icons__x28_selected_x29_">
</g>
<g id="Glyphish_6_Icons">
	<g id="_x37_50-home_x40_2x.png_2_">
		<g>
			<path d="M55.7,28.3L55.7,28.3L46,18.2V6c0-1.1-0.9-2-2-2h-4c-1.1,0-2,0.9-2,2v3.9l-9.3-9.6l0,0C28.5,0.1,28.3,0,28,0
				s-0.5,0.1-0.7,0.3l0,0l-27,28l0,0C0.1,28.5,0,28.7,0,29c0,0.6,0.4,1,1,1c0.3,0,0.5-0.1,0.7-0.3l0,0L6,25.3V54c0,1.1,0.9,2,2,2h40
				c1.1,0,2-0.9,2-2V25.3l4.3,4.4l0,0c0.2,0.2,0.4,0.3,0.7,0.3c0.6,0,1-0.4,1-1C56,28.7,55.9,28.5,55.7,28.3z M40,6h4v10.2L40,12V6z
				 M34,54H22V32h12V54z M48,54H36V32c0-1.1-0.9-2-2-2H22c-1.1,0-2,0.9-2,2v22H8V23.2L28,2.4l20,20.7V54z"/>
		</g>
	</g>
</g>
</svg>
